# xmcd
#
# Track frame offsets:
#	150
#	10319
#	22310
#	34955
#	46092
#	59817
#	83641
#	123474
#	157639
#	179208
#	191734
#	206805
#	222695
#	236200
#	252816
#	271701
#	297375
#	317728
#	332142
#	343567
#
# Disc length: 4791
#
# Revision: 1
# Processed by: cddbd v1.5.1PL0 Copyright (c) Steve Scherf et al.
# Submitted via: VisiTrax 2.9.10.228 - For more info visit www.synapsa.com
# Normalized: r0:DSETVAR1
#
DISCID=3a12b514
DTITLE=Various Artist - 20 All Time Blues Classics: A Whole Lotta Rhythm Too
DYEAR=2002
DGENRE=Blues
TTITLE0=John Lee Hooker - Dimples
TTITLE1=Howlin' Wolf - Louise
TTITLE2=Jimmy Reed - Honest I Do
TTITLE3=Dale Hawkins - Susie O
TTITLE4=Muddy Waters - I'm Ready
TTITLE5=B.B. King - The Thrill Is Gone
TTITLE6=Sun House - Preachin' The Blues
TTITLE7=Big Joe Turner - Chains Of Love
TTITLE8=Lightning Hopkins - Shake It Baby
TTITLE9=Canned Heat - Got My Mojo Working
TTITLE10=Billy Boy Arnold - I Wish You Would
TTITLE11=Memphis Slim - Born With The Blues
TTITLE12=Big Joe Williams - Don't Want No Big Fat Woman
TTITLE13=Taj Mahal - Freight Train Blues
TTITLE14=Eric Clapton - Stormy Monday Blues
TTITLE15=Eric Clapton - She's So Respectable
TTITLE16=Little Walter - Goin' Down Slow
TTITLE17=Mississippi John Hurt - Candy Man Blues
TTITLE18=Elmore James - Rolling And Tumblin'
TTITLE19=Screaming Jay Hawkins - I Put A Spell On You
EXTD=Hummingbird Entertainment 2002\nHBECD 037
EXTT0=
EXTT1=
EXTT2=
EXTT3=
EXTT4=
EXTT5=
EXTT6=
EXTT7=
EXTT8=
EXTT9=
EXTT10=
EXTT11=
EXTT12=
EXTT13=
EXTT14=
EXTT15=
EXTT16=
EXTT17=
EXTT18=
EXTT19=
PLAYORDER=
